<?xml version="1.0" encoding="UTF-8"?>
<svg width="552px" height="552px" viewBox="0 0 552 552" version="1.1" xmlns="http://www.w3.org/2000/svg" xmlns:xlink="http://www.w3.org/1999/xlink">
    <title>repo-sync</title>
    <desc>Created with Sketch.</desc>
    <defs></defs>
    <g id="Page-1" stroke="none" stroke-width="1" fill="none" fill-rule="evenodd">
        <g id="reposync" fill-rule="nonzero">
            <g id="Fork" transform="translate(0.000000, 30.637820)" fill="#1A1A1A">
                <path d="M413.475,72.16515 C413.475,98.42546 427.4892,121.32499 447.95,133.62389 L447.95,235.89562 C447.95,271.64827 413.436425,310.145593 379,312.17468 C341.734905,314.37044 305.052378,328.552653 275.48404,359.507286 C272.624408,362.500989 229.02658,396.414405 224.368392,401.432298 C212.530995,414.18378 206.625,431.012358 206.625,449.85702 C206.625,489.5245 237.3251,521.3622 275.575,521.3622 C313.8251,521.3622 344.525,489.5245 344.525,449.85702 C344.525,430.85452 337.5266,414.10437 326.2016,401.2514 C336.4407,388.39827 352.5922,378.35187 379,378.35187 C447.95,378.35187 516.9,306.84671 516.9,235.3414 L516.9,133.06968 C537.3782,120.77093 551.375,97.8714 551.375,71.61108 C551.375,31.94358 520.6751,0.10593 482.425,0.10593 C444.1751,0.65999 413.475,32.49765 413.475,72.16515 Z M275.575,486.1459 C256.7172,486.1459 241.1,469.95 241.1,450.39327 C241.1,430.83656 256.7172,414.64062 275.575,414.64062 C294.4329,414.64062 310.05,430.83656 310.05,450.39327 C310.05,469.95 294.4329,486.1459 275.575,486.1459 Z M482.053125,106.34233 C463.195325,106.34233 447.578125,90.14639 447.578125,70.58968 C447.578125,51.03311 463.195325,34.83718 482.053125,34.83718 C500.911025,34.83718 516.528125,51.03311 516.528125,70.58968 C516.528125,90.14639 500.911025,106.34233 482.053125,106.34233 Z" id="path4-7-copy"></path>
                <path d="M137.9,72.05922 C137.9,98.31953 123.8858,121.21906 103.425,133.51796 L103.425,235.78969 C103.425,271.54234 137.938575,310.039663 172.375,312.06875 C213.2441,314.476868 253.4125,331.302035 284.264323,368.857431 C291.553125,382.8125 310.275,388.29234 310.275,388.29234 C333.28125,401.14547 213.8484,413.99844 225.1734,401.14547 C214.9343,388.29234 198.7828,378.24594 172.375,378.24594 C103.425,378.24594 34.475,306.74078 34.475,235.23547 L34.475,132.96375 C13.9968,120.665 0,97.76547 0,71.50515 C0,31.83765 30.6999,0 68.95,0 C107.1999,0.55406 137.9,32.39172 137.9,72.05922 Z M69.321875,106.2364 C88.179675,106.2364 103.796875,90.04046 103.796875,70.48375 C103.796875,50.92718 88.179675,34.73125 69.321875,34.73125 C50.463975,34.73125 34.846875,50.92718 34.846875,70.48375 C34.846875,90.04046 50.463975,106.2364 69.321875,106.2364 Z" id="path4-7-copy-2"></path>
            </g>
            <polygon id="rect2834" fill="#000000" transform="translate(275.999995, 100.999995) rotate(-270.000000) translate(-275.999995, -100.999995) " points="275.999995 9.9673356e-15 175 100.999995 225.499998 100.999995 225.499998 201.999991 326.499993 201.999991 326.499993 100.999995 376.999991 100.999995 275.999995 0"></polygon>
        </g>
    </g>
</svg>